<svg width="360" height="86" viewBox="0 0 360 86" fill="none" xmlns="http://www.w3.org/2000/svg">
<g clip-path="url(#clip0_25_38)">
<path d="M41.2941 73.8167L45.9692 85.8089H42.7113L41.8317 83.4837H37.4661L36.6027 85.8089H33.3448L38.0199 73.8167H41.2941ZM38.362 80.9037H40.8869L39.6163 77.5274L38.362 80.9037Z" fill="white"/>
<path d="M53.2181 73.6096C54.3216 73.5757 55.4105 73.864 56.3457 74.4378V77.4796C55.5369 76.8281 54.5265 76.4633 53.4787 76.4444C52.627 76.5024 51.8296 76.8741 51.2472 77.4845C50.6649 78.0948 50.341 78.8985 50.341 79.7331C50.341 80.5678 50.6649 81.3715 51.2472 81.9818C51.8296 82.5922 52.627 82.9639 53.4787 83.0219C54.5182 83.0345 55.5306 82.6971 56.3457 82.0663V85.1081C55.4105 85.682 54.3216 85.9703 53.2181 85.9363C51.5375 85.9363 49.9258 85.2836 48.7374 84.1218C47.549 82.9599 46.8814 81.3842 46.8814 79.7411C46.8814 78.098 47.549 76.5223 48.7374 75.3605C49.9258 74.1986 51.5375 73.5459 53.2181 73.5459V73.6096Z" fill="white"/>
<path d="M64.7674 73.6096C65.8662 73.573 66.9506 73.8616 67.8787 74.4378V77.4796C67.0776 76.8259 66.0714 76.4605 65.0281 76.4444C64.1764 76.5024 63.3789 76.8741 62.7965 77.4845C62.2142 78.0948 61.8903 78.8985 61.8903 79.7331C61.8903 80.5678 62.2142 81.3715 62.7965 81.9818C63.3789 82.5922 64.1764 82.9639 65.0281 83.0219C66.0631 83.0374 67.0712 82.6995 67.8787 82.0663V85.1081C66.9506 85.6843 65.8662 85.973 64.7674 85.9363C63.0868 85.9363 61.4751 85.2836 60.2867 84.1218C59.0984 82.9599 58.4308 81.3842 58.4308 79.7411C58.4308 78.098 59.0984 76.5223 60.2867 75.3605C61.4751 74.1986 63.0868 73.5459 64.7674 73.5459V73.6096Z" fill="white"/>
<path d="M74.0525 85.8089H70.7946V73.8167H74.0525V85.8089Z" fill="white"/>
<path d="M77.1475 73.8167H81.7738C82.5982 73.7502 83.4277 73.859 84.2051 74.1356C84.9825 74.4121 85.6895 74.8499 86.2776 75.4188C86.8656 75.9876 87.3208 76.6742 87.6119 77.4313C87.9029 78.1884 88.023 78.9981 87.9638 79.8048C88.0258 80.6143 87.9072 81.4272 87.6163 82.1875C87.3254 82.9478 86.8691 83.6372 86.2789 84.2082C85.6887 84.7791 84.9788 85.218 84.1981 85.4943C83.4175 85.7707 82.5847 85.878 81.7575 85.8089H77.1475V73.8167ZM81.6272 83.0855C82.4788 83.0276 83.2763 82.6559 83.8587 82.0455C84.441 81.4352 84.7649 80.6315 84.7649 79.7968C84.7649 78.9622 84.441 78.1585 83.8587 77.5482C83.2763 76.9378 82.4788 76.5661 81.6272 76.5081H80.3077V83.0855H81.6272Z" fill="white"/>
<path d="M99.3665 73.8167V76.4444H93.6814V78.3237H98.8127V80.9515H93.6814V83.0218H99.3665V85.7452H90.5213V73.8167H99.3665Z" fill="white"/>
<path d="M113.033 85.8089H110.443L105.296 78.7855V85.8089H102.201V73.8167H105.198L109.938 80.41V73.8167H113.033V85.8089Z" fill="white"/>
<path d="M115.2 73.8167H126V76.4444H122.172V85.7452H118.914V76.4444H115.2V73.8167Z" fill="white"/>
<path d="M133.917 73.8167L138.592 85.8089H135.334L134.454 83.4837H130.007L129.144 85.8089H125.886L130.561 73.8167H133.917ZM130.985 80.9037H133.575L132.32 77.5274L130.985 80.9037Z" fill="white"/>
<path d="M140.644 73.8167H143.902V83.0855H149.392V85.8089H140.644V73.8167Z" fill="white"/>
<path d="M151.591 73.8167H154.849V83.0855H160.29V85.8089H151.591V73.8167Z" fill="white"/>
<path d="M168.565 73.8167H171.937L167.506 81.5407V85.8089H164.248V81.5407L159.882 73.8167H163.368L165.942 78.4989L168.565 73.8167Z" fill="white"/>
<path d="M187.884 73.8167L189.757 80.8559L191.468 73.8167H194.726L191.468 85.8089H188.519L186.63 78.7696L184.708 85.8089H181.776L178.518 73.8167H181.776L183.502 80.8559L185.392 73.8167H187.884Z" fill="white"/>
<path d="M205.526 73.8167V76.4444H199.906V78.3237H205.037V80.9515H199.906V83.0218H205.526V85.7452H196.746V73.8167H205.526Z" fill="white"/>
<path d="M208.148 82.13C209.31 82.9023 210.671 83.3384 212.074 83.3881C213.1 83.3881 213.98 83.1652 213.98 82.4326C213.98 81.7 213.589 81.6522 212.938 81.4133L211.081 80.8878C209.028 80.2985 207.823 79.2952 207.823 77.3044C207.823 74.9315 209.875 73.6096 212.449 73.6096C213.795 73.578 215.126 73.891 216.309 74.5174V77.4C215.224 76.6452 213.928 76.2339 212.595 76.2215C211.667 76.2215 210.967 76.4604 210.967 77.0815C210.967 77.7026 211.357 77.83 211.993 78.037L213.85 78.5785C216.081 79.2633 217.108 80.41 217.108 82.2574C217.108 84.8533 214.843 86 212.09 86C210.692 86.018 209.311 85.6834 208.083 85.0285L208.148 82.13Z" fill="white"/>
<path d="M232.062 73.8167L236.737 85.8089H233.479L232.599 83.4837H228.136L227.289 85.8089H224.112L228.787 73.8167H232.062ZM229.113 80.9037H231.638L230.384 77.5274L229.113 80.9037Z" fill="white"/>
<path d="M249.605 85.8089H247.015L241.884 78.7855V85.8089H238.773V73.8167H241.77L246.51 80.41V73.8167H249.605V85.8089Z" fill="white"/>
<path d="M252.733 73.8167H257.376C258.201 73.7478 259.033 73.8548 259.812 74.1303C260.591 74.4057 261.301 74.8431 261.89 75.4122C262.48 75.9814 262.937 76.6688 263.229 77.4271C263.521 78.1854 263.641 78.9966 263.582 79.8048C263.644 80.6143 263.525 81.4272 263.234 82.1875C262.944 82.9478 262.487 83.6372 261.897 84.2082C261.307 84.7791 260.597 85.218 259.816 85.4943C259.036 85.7707 258.203 85.878 257.376 85.8089H252.749L252.733 73.8167ZM257.213 83.0855C258.064 83.0276 258.862 82.6559 259.444 82.0455C260.027 81.4352 260.35 80.6315 260.35 79.7968C260.35 78.9622 260.027 78.1585 259.444 77.5482C258.862 76.9378 258.064 76.5661 257.213 76.5081H255.893V83.0855H257.213Z" fill="white"/>
<path d="M274.871 73.8167V76.4444H269.267V78.3237H274.398V80.9515H269.267V83.0218H274.871V85.7452H266.107V73.8167H274.871Z" fill="white"/>
<path d="M280.963 81.8433V85.8089H277.786V73.8167H283.309C283.885 73.7538 284.468 73.8139 285.018 73.9927C285.567 74.1716 286.071 74.4649 286.494 74.8525C286.917 75.24 287.248 75.7126 287.466 76.2377C287.684 76.7627 287.783 77.3277 287.756 77.8937C287.806 78.672 287.597 79.4454 287.159 80.0974C286.722 80.7494 286.079 81.2447 285.329 81.5089L288.195 85.8089H284.644L282.087 81.8433H280.963ZM280.963 79.343H282.967C284.107 79.343 284.595 78.7696 284.595 77.8937C284.595 77.0178 284.074 76.4444 282.967 76.4444H280.963V79.343Z" fill="white"/>
<path d="M290.199 82.13C291.36 82.9023 292.721 83.3384 294.125 83.3881C295.151 83.3881 296.031 83.1652 296.031 82.4326C296.031 81.7 295.64 81.6522 294.988 81.4133L293.213 80.8878C291.16 80.2985 289.955 79.2952 289.955 77.3044C289.955 74.9315 292.007 73.6096 294.581 73.6096C295.927 73.578 297.258 73.891 298.442 74.5174V77.4C297.356 76.6452 296.06 76.2339 294.728 76.2215C293.799 76.2215 293.099 76.4604 293.099 77.0815C293.099 77.7026 293.49 77.83 294.125 78.037L295.982 78.5785C298.214 79.2633 299.24 80.41 299.24 82.2574C299.24 84.8533 296.976 86 294.223 86C292.824 86.018 291.444 85.6834 290.215 85.0285L290.199 82.13Z" fill="white"/>
<path d="M307.075 86C306.257 86.0085 305.446 85.8513 304.693 85.5383C303.94 85.2253 303.261 84.7634 302.699 84.1814C302.138 83.5995 301.706 82.9103 301.43 82.157C301.154 81.4038 301.041 80.6029 301.097 79.8048C301.161 78.6568 301.567 77.5523 302.267 76.628C302.966 75.7038 303.928 75.0004 305.032 74.6051C306.136 74.2097 307.335 74.1397 308.479 74.4038C309.624 74.6678 310.664 75.2543 311.471 76.0906C312.278 76.9268 312.816 77.9762 313.019 79.1086C313.223 80.2411 313.081 81.4069 312.613 82.4617C312.146 83.5164 311.371 84.4139 310.387 85.0428C309.403 85.6717 308.251 86.0045 307.075 86ZM307.075 76.4444C305.446 76.4444 304.338 77.8141 304.338 79.8844C304.338 81.9548 305.414 83.3244 307.075 83.3244C308.737 83.3244 309.844 81.9548 309.844 79.8844C309.844 77.8141 308.737 76.4444 307.075 76.4444Z" fill="white"/>
<path d="M326.46 85.8089H323.87L318.722 78.7855V85.8089H315.627V73.8167H318.624L323.365 80.41V73.8167H326.46V85.8089Z" fill="white"/>
<path d="M360 59.7063H0V61.8722H360V59.7063Z" fill="white"/>
<path d="M272.786 21.4841C272.623 21.4638 272.458 21.4774 272.302 21.5241C272.145 21.5707 272 21.6493 271.877 21.7547C271.754 21.8601 271.655 21.9898 271.587 22.1354C271.519 22.2809 271.483 22.4389 271.482 22.5989V22.8696C271.482 22.9499 271.45 23.0268 271.392 23.0836C271.334 23.1403 271.255 23.1722 271.173 23.1722H269.658C269.576 23.1722 269.497 23.1403 269.439 23.0836C269.381 23.0268 269.348 22.9499 269.348 22.8696V22.6148C269.348 22.187 269.436 21.7635 269.607 21.3696C269.778 20.9757 270.028 20.6195 270.343 20.3222C270.657 20.0249 271.03 19.7927 271.439 19.6393C271.847 19.486 272.283 19.4147 272.72 19.4296C273.584 19.4296 274.413 19.7652 275.024 20.3625C275.635 20.9599 275.978 21.77 275.978 22.6148C275.958 23.4719 275.609 24.2903 275.001 24.9081L272.036 27.9818C271.938 28.0774 271.922 28.2844 272.183 28.2844H275.685C275.727 28.2844 275.769 28.2927 275.807 28.3089C275.846 28.3251 275.881 28.3488 275.91 28.3786C275.939 28.4084 275.961 28.4437 275.976 28.4823C275.99 28.5208 275.997 28.5619 275.995 28.603V30.0681C275.997 30.1085 275.991 30.1489 275.976 30.1866C275.961 30.2244 275.938 30.2587 275.909 30.2872C275.88 30.3158 275.845 30.338 275.806 30.3524C275.768 30.3668 275.726 30.373 275.685 30.3707H269.495C269.453 30.3729 269.411 30.3667 269.372 30.3524C269.332 30.3382 269.296 30.3163 269.266 30.2879C269.235 30.2596 269.211 30.2255 269.194 30.1877C269.178 30.1499 269.169 30.1093 269.169 30.0681V28.2367C269.163 28.1663 269.173 28.0956 269.199 28.0295C269.224 27.9634 269.264 27.9036 269.316 27.8544L273.405 23.6022C273.653 23.3198 273.806 22.9695 273.844 22.5989C273.851 22.4574 273.829 22.3161 273.779 22.1832C273.729 22.0503 273.652 21.9284 273.554 21.8246C273.455 21.7208 273.337 21.6373 273.205 21.5788C273.073 21.5204 272.93 21.4882 272.786 21.4841Z" fill="white"/>
<path d="M281.891 19.3978C282.806 19.4362 283.674 19.8066 284.325 20.4368C284.975 21.067 285.362 21.9117 285.41 22.8059C285.573 24.2455 285.573 25.6982 285.41 27.1378C285.41 28.0501 285.039 28.9251 284.379 29.5702C283.72 30.2153 282.825 30.5778 281.891 30.5778C280.958 30.5778 280.063 30.2153 279.403 29.5702C278.744 28.9251 278.373 28.0501 278.373 27.1378C278.21 25.6982 278.21 24.2455 278.373 22.8059C278.421 21.9117 278.808 21.067 279.458 20.4368C280.109 19.8066 280.976 19.4362 281.891 19.3978ZM280.572 22.7422C280.409 24.219 280.409 25.7087 280.572 27.1855C280.584 27.5208 280.729 27.8385 280.974 28.0728C281.22 28.307 281.548 28.4398 281.891 28.4437C282.236 28.44 282.566 28.3077 282.815 28.0739C283.063 27.84 283.211 27.5222 283.227 27.1855C283.374 25.7079 283.374 24.2199 283.227 22.7422C283.211 22.4055 283.063 22.0878 282.815 21.8539C282.566 21.62 282.236 21.4877 281.891 21.4841C281.548 21.4879 281.22 21.6208 280.974 21.855C280.729 22.0892 280.584 22.4069 280.572 22.7422Z" fill="white"/>
<path d="M290.411 22.6467C290.412 22.611 290.403 22.5757 290.383 22.5455C290.364 22.5153 290.335 22.4917 290.301 22.4779C290.268 22.464 290.23 22.4606 290.195 22.4679C290.159 22.4753 290.126 22.4932 290.101 22.5193L288.195 24.2711C288.151 24.319 288.093 24.352 288.029 24.3652C287.964 24.3784 287.897 24.3711 287.837 24.3445C287.777 24.3178 287.727 24.2732 287.695 24.217C287.663 24.1609 287.65 24.0961 287.658 24.0322V22.5352C287.647 22.4117 287.665 22.2876 287.711 22.1718C287.756 22.056 287.827 21.9516 287.919 21.8663L289.743 19.9393C289.839 19.822 289.96 19.7269 290.098 19.6608C290.236 19.5947 290.388 19.5593 290.541 19.557H292.284C292.371 19.557 292.453 19.5906 292.515 19.6503C292.576 19.7101 292.61 19.7911 292.61 19.8756V28.1411C292.61 28.1599 292.614 28.1786 292.621 28.196C292.628 28.2134 292.639 28.2292 292.653 28.2425C292.667 28.2558 292.683 28.2663 292.7 28.2735C292.718 28.2807 292.737 28.2844 292.757 28.2844H294.516C294.602 28.2844 294.685 28.318 294.746 28.3777C294.807 28.4375 294.842 28.5185 294.842 28.603V30.0681C294.842 30.1093 294.833 30.15 294.817 30.1877C294.8 30.2255 294.776 30.2596 294.745 30.2879C294.715 30.3163 294.679 30.3382 294.639 30.3524C294.6 30.3667 294.558 30.3729 294.516 30.3707H288C287.959 30.3707 287.919 30.3629 287.882 30.3477C287.844 30.3325 287.81 30.3102 287.781 30.2821C287.752 30.254 287.73 30.2207 287.714 30.1839C287.699 30.1472 287.69 30.1079 287.69 30.0681V28.6667C287.69 28.5849 287.722 28.5062 287.78 28.4469C287.838 28.3876 287.916 28.3522 288 28.3481H290.215C290.236 28.3504 290.257 28.3484 290.277 28.3422C290.296 28.336 290.314 28.3258 290.33 28.3122C290.345 28.2987 290.357 28.2821 290.366 28.2636C290.374 28.2451 290.378 28.2251 290.378 28.2048L290.411 22.6467Z" fill="white"/>
<path d="M300.69 21.8026C300.698 21.7848 300.702 21.765 300.7 21.7452C300.699 21.7255 300.692 21.7066 300.68 21.6903C300.669 21.6741 300.653 21.6612 300.634 21.653C300.616 21.6447 300.596 21.6414 300.576 21.6433H296.552C296.47 21.6433 296.391 21.6115 296.333 21.5547C296.275 21.498 296.243 21.421 296.243 21.3407V19.8756C296.24 19.8345 296.247 19.7934 296.261 19.7549C296.276 19.7163 296.298 19.681 296.327 19.6512C296.356 19.6214 296.391 19.5977 296.43 19.5815C296.468 19.5653 296.51 19.557 296.552 19.557H302.628C302.712 19.5611 302.79 19.5965 302.848 19.6558C302.906 19.7151 302.938 19.7938 302.938 19.8756V21.723C302.938 21.8291 302.91 21.9334 302.856 22.0256L299.256 30.1478C299.234 30.2086 299.195 30.262 299.143 30.3016C299.091 30.3411 299.029 30.3651 298.963 30.3707H297.334C297.041 30.3707 296.976 30.1478 297.041 30.0044L300.69 21.8026Z" fill="white"/>
<path d="M67.1294 20.3852L66.7873 22.2007H61.9004L61.5095 24.3826H65.9728L65.6308 26.1663H61.2326L60.809 28.5393H65.6959L65.3864 30.3707H58.3819L60.1737 20.3852H67.1294Z" fill="white"/>
<path d="M68.1719 27.4722C69.0159 28.253 70.1221 28.706 71.2833 28.7463C72.3421 28.7463 73.2217 28.4118 73.2217 27.4881C73.2217 26.9785 72.8308 26.6759 72.2281 26.437L70.8109 25.8956C70.2424 25.7779 69.731 25.4768 69.3587 25.0406C68.9865 24.6044 68.775 24.0586 68.7584 23.4907C68.7845 23.0214 68.9079 22.5622 69.1209 22.1409C69.334 21.7195 69.6323 21.3449 69.9978 21.0396C70.3634 20.7344 70.7885 20.5048 71.2475 20.365C71.7064 20.2251 72.1897 20.1778 72.6679 20.2259C73.829 20.1689 74.9761 20.4941 75.9258 21.1496L75.5511 23.0926C74.7629 22.3992 73.7443 22.0088 72.6842 21.9937C71.7231 21.9937 70.8923 22.3122 70.8923 23.1244C70.8923 23.65 71.267 23.857 71.8534 24.1278L73.4824 24.733C74.0053 24.886 74.4672 25.1928 74.8053 25.6118C75.1434 26.0307 75.3413 26.5413 75.372 27.0741C75.372 29.3993 73.4335 30.4822 71.2833 30.4822C70.0404 30.5102 68.8203 30.1535 67.7973 29.463L68.1719 27.4722Z" fill="white"/>
<path d="M77.5873 20.3852H86.3348L85.9928 22.2007H82.7348L81.2688 30.3707H79.0697L80.552 22.2007H77.2941L77.5873 20.3852Z" fill="white"/>
<path d="M86.6281 27.9022C86.978 27.9022 87.3136 28.0381 87.5611 28.2801C87.8085 28.522 87.9475 28.8501 87.9475 29.1922C87.9475 29.5344 87.8085 29.8625 87.5611 30.1044C87.3136 30.3463 86.978 30.4822 86.6281 30.4822C86.2781 30.4822 85.9425 30.3463 85.6951 30.1044C85.4476 29.8625 85.3086 29.5344 85.3086 29.1922C85.3086 28.8501 85.4476 28.522 85.6951 28.2801C85.9425 28.0381 86.2781 27.9022 86.6281 27.9022Z" fill="white"/>
<path d="M118.816 38.5407L115.314 47.7778H102.282L120.967 0H134.34L152.976 47.7778H139.944L136.49 38.5407H118.816ZM127.645 14.7952L122.628 28.2685H132.662L127.645 14.7952Z" fill="white"/>
<path d="M223.477 38.5407L219.91 47.7778H206.878L225.627 0H239.017L257.652 47.7778H244.621L241.119 38.5089L223.477 38.5407ZM227.305 28.2685H237.339L232.322 14.7952L227.305 28.2685Z" fill="white"/>
<path d="M184.691 0L193.732 29.0648L203.734 0H217.222L199.336 47.8096H187.64L179.984 23.2041L172.344 47.8096H160.632L142.746 0H156.233L166.252 29.0648L175.292 0H184.691Z" fill="white"/>
</g>
<defs>
<clipPath id="clip0_25_38">
<rect width="360" height="86" fill="white"/>
</clipPath>
</defs>
</svg>
