<svg width="60" height="58" viewBox="0 0 60 58" fill="none" xmlns="http://www.w3.org/2000/svg">
<path d="M60 48.0779C60 48.4568 59.8957 48.8356 59.8783 49.1972C59.8609 49.5761 59.9478 49.9549 59.8957 50.3337C59.8609 50.7126 59.7565 51.0742 59.687 51.453C59.6174 51.8147 59.5652 52.1935 59.4435 52.5551C59.3217 52.9684 59.0609 53.3128 58.8522 53.6572C58.6261 54.0188 58.4174 54.3804 58.0696 54.6387C57.7565 54.8798 57.3565 55.0176 56.9044 55.1381C56.6087 55.2242 56.2957 55.2759 55.9826 55.3103C55.6696 55.3447 55.3565 55.3792 55.0435 55.362C54.6261 55.362 54.2261 55.4997 53.8435 55.5858C53.4609 55.6891 53.0783 55.8097 52.7131 56.0163C52.4174 56.1885 52.0522 56.2402 51.7391 56.3607C51.4087 56.4812 51.1131 56.6535 50.7652 56.7223C50.4348 56.7912 50.087 56.7912 49.7391 56.8084C49.3739 56.8256 49.0261 56.8084 48.6609 56.7568C48.2957 56.7051 47.9304 56.6879 47.5826 56.5846C47.287 56.4985 47.0261 56.464 46.7478 56.4813C46.4696 56.4985 46.1913 56.5329 45.9131 56.6535C45.6 56.7912 45.287 56.9634 44.9391 57.0495C44.6087 57.1356 44.2435 57.1528 43.8957 57.2045C43.5478 57.2389 43.2 57.2561 42.8522 57.2389C42.313 57.2389 41.7565 57.17 41.2348 57.0667C40.6957 56.9462 40.1565 56.9634 39.6174 57.0839C39.287 57.17 38.9391 57.1873 38.5913 57.2045C38.2435 57.2389 37.9131 57.2389 37.5652 57.2217C37.2174 57.2045 36.887 57.17 36.5391 57.1184C36.0348 57.0495 35.5478 56.8601 35.0435 56.8429C34.487 56.8256 33.9304 57.0151 33.3739 57.0151C33.0261 57.0323 32.6783 56.9634 32.3131 56.9634C31.9652 56.9634 31.6 57.0323 31.2522 57.0151C30.8 56.9806 30.3304 56.9118 29.8783 56.8429C29.4261 56.774 28.9913 56.6018 28.5565 56.464C28.2609 56.3779 27.9478 56.4296 27.6522 56.464C27.3565 56.4985 27.0609 56.5501 26.7652 56.5846C26.4174 56.619 26.0522 56.6879 25.7044 56.7223C25.3391 56.7568 24.9913 56.774 24.6261 56.7912C24.2609 56.8084 23.9131 56.8084 23.5478 56.8084C23.2348 56.8256 22.9217 56.7051 22.6261 56.619C22.3304 56.5329 22 56.4985 21.7217 56.3435C21.2 56.0508 20.6783 55.9647 20.1044 56.1369C19.687 56.2746 19.2522 56.3779 18.8174 56.3607C18.4 56.3435 17.9826 56.1885 17.5652 56.0163C17.0087 55.8097 16.4522 55.8441 15.8783 56.0335C15.4609 56.1713 15.0435 56.2918 14.6261 56.4296C14.2087 56.5674 13.7913 56.7051 13.3739 56.8084C12.9565 56.9117 12.4696 56.9117 12.0348 56.8256C11.6522 56.7568 11.287 56.7396 10.9217 56.7568C10.5565 56.7568 10.1739 56.7568 9.79131 56.8429C9.39131 56.929 8.97392 56.9806 8.55653 57.0323C8.13914 57.084 7.73914 57.17 7.32175 57.1873C6.97392 57.2045 6.62609 57.1528 6.29566 57.1184C5.94783 57.084 5.6174 57.0151 5.28696 56.9117C4.95653 56.8084 4.62609 56.7051 4.33044 56.5501C4.03479 56.3951 3.70436 56.2574 3.4087 56.068C3.13044 55.8786 2.93914 55.5686 2.67827 55.3447C2.36523 55.052 2.00001 54.8281 1.73914 54.501C1.47827 54.1738 1.33914 53.7605 1.14783 53.3989C0.956529 53.0373 0.817399 52.6584 0.69566 52.2452C0.591312 51.8491 0.469573 51.453 0.43479 51.057C0.400008 50.6437 0.469573 50.2476 0.504355 49.8344C0.539138 49.4555 0.556529 49.0767 0.591312 48.6978C0.626095 48.319 0.660877 47.9402 0.678268 47.5613C0.713051 47.2169 0.730442 46.8553 0.678268 46.5281C0.626095 46.1837 0.539138 45.8566 0.452181 45.5122C0.382616 45.2022 0.278268 44.8922 0.208703 44.5823C0.139138 44.2723 0.0869641 43.9452 0.0347902 43.6352C-0.034775 43.1875 -0.0695576 42.757 0.0347902 42.3609C0.139138 41.9649 0.330442 41.5688 0.643486 41.2416C0.939138 40.9317 1.30436 40.7078 1.63479 40.4495C1.89566 40.2429 2.05218 39.9674 2.22609 39.7091C2.40001 39.468 2.6087 39.2097 2.66088 38.8825C2.73044 38.4864 2.71305 38.0559 2.80001 37.6771C2.88696 37.281 2.99131 36.885 3.13044 36.5061C3.25218 36.1273 3.44349 35.7485 3.60001 35.3869C3.75653 35.008 3.94783 34.6464 4.15653 34.302C4.36522 33.9576 4.59131 33.6304 4.85218 33.3032C5.06088 33.0277 5.25218 32.735 5.4087 32.4422C5.56523 32.1323 5.70436 31.8223 5.8087 31.4952C5.91305 31.168 6.03479 30.8408 6.10435 30.5136C6.17392 30.1864 6.15653 29.8248 6.19131 29.4804C6.24349 29.0671 6.26088 28.6539 6.31305 28.2234C6.36522 27.8101 6.4174 27.3968 6.50436 26.9835C6.57392 26.5703 6.67827 26.157 6.80001 25.7609C6.90436 25.3821 7.14783 25.0549 7.30436 24.6933C7.46088 24.3317 7.54783 23.9356 7.73914 23.6084C7.93044 23.264 8.19131 22.9541 8.4174 22.6441C8.64349 22.3342 8.88696 22.0242 9.14783 21.7142C9.37392 21.4387 9.56522 21.1288 9.79131 20.8705C10.0174 20.5949 10.3131 20.3883 10.5565 20.1128C10.8 19.8545 11.0435 19.5962 11.287 19.3379C11.5304 19.0796 11.7565 18.8041 12.0174 18.563C12.2783 18.3047 12.5739 18.1153 12.8174 17.857C13.0783 17.6159 13.2696 17.2887 13.5131 17.0476C13.7565 16.8238 14.0174 16.6171 14.2609 16.3761C14.5044 16.1522 14.7304 15.8939 14.9739 15.6701C15.2174 15.4462 15.4435 15.1879 15.687 14.964C16 14.6713 16.3131 14.413 16.5739 14.103C16.8522 13.7931 17.0957 13.4487 17.3391 13.1215C17.5826 12.7771 17.8609 12.4672 18.0696 12.1055C18.2783 11.7439 18.3826 11.3306 18.5565 10.9518C18.7304 10.573 18.9565 10.2286 19.1304 9.86694C19.3044 9.4881 19.4609 9.10927 19.6348 8.74765C19.8087 8.38603 20.0348 8.02441 20.2087 7.66279C20.3826 7.30118 20.5913 6.93956 20.7826 6.57794C20.9739 6.1991 21.1131 5.78582 21.3217 5.42421C21.5304 5.06259 21.7391 4.68375 21.9826 4.32213C22.2261 3.97773 22.5044 3.63333 22.7826 3.32338C23.0435 3.03064 23.3565 2.80678 23.6522 2.5657C23.9478 2.3074 24.2261 2.0491 24.5565 1.85968C24.887 1.67026 25.2522 1.5325 25.6174 1.41196C25.9652 1.29143 26.3304 1.15367 26.7304 1.10201C27.0783 1.05035 27.4087 1.10201 27.7565 1.10201C28.1044 1.10201 28.4348 1.08479 28.7826 1.13645C29.1131 1.18811 29.4435 1.27421 29.7913 1.36031C30.3131 1.49806 30.8348 1.67026 31.3565 1.84246C31.6522 1.94578 31.9652 1.89412 32.2609 1.8769C32.5565 1.85968 32.8696 1.8769 33.1478 1.75636C33.4435 1.6186 33.7044 1.4464 34 1.30865C34.2957 1.17089 34.5739 1.03313 34.8696 0.912587C35.1652 0.774828 35.4435 0.619849 35.7391 0.499309C36.0696 0.36155 36.4174 0.275451 36.7478 0.189351C37.0783 0.103251 37.4435 0.0688116 37.7913 0.0515917C38.1391 0.0343718 38.4522 0.0688116 38.7652 0.172131C39.0609 0.275451 39.3565 0.41321 39.6174 0.637069C39.8957 0.878148 40.1044 1.13645 40.3131 1.41196C40.5217 1.68748 40.7131 1.98022 40.8696 2.29018C41.0261 2.60014 41.0957 2.94454 41.2174 3.27172C41.3565 3.65055 41.5304 4.01217 41.6522 4.39101C41.7565 4.76985 41.8957 5.14869 42 5.54474C42.087 5.92358 42.1044 6.33686 42.1913 6.73292C42.2609 7.12898 42.3826 7.50781 42.4522 7.90387C42.5217 8.26549 42.5044 8.64433 42.6087 8.98873C42.6957 9.35035 42.8174 9.69474 42.9391 10.0391C43.0609 10.3835 43.2522 10.6935 43.4087 11.0207C43.5652 11.3479 43.7565 11.6578 43.9478 11.9678C44.1391 12.2777 44.2261 12.6393 44.4522 12.9493C44.6609 13.242 44.9391 13.5003 45.1826 13.7759C45.4435 14.0858 45.7739 14.3269 46.0696 14.6024C46.3652 14.8779 46.6261 15.2051 46.9217 15.4806C47.2348 15.7562 47.4957 16.0833 47.7565 16.3933C48.0348 16.7032 48.3478 16.996 48.5739 17.3404C48.8174 17.6848 48.9739 18.0636 49.1826 18.4252C49.3913 18.7869 49.6 19.1485 49.7739 19.5273C49.9304 19.8717 50.1044 20.1989 50.2435 20.5433C50.3826 20.8877 50.5565 21.2321 50.6783 21.5937C50.8 21.9553 50.9044 22.3169 51.0087 22.6786C51.113 23.0402 51.2522 23.3846 51.3391 23.7634C51.4261 24.125 51.4261 24.5211 51.5131 24.8827C51.6 25.2443 51.7391 25.6059 51.8087 25.9676C51.8783 26.3636 51.8783 26.7769 51.9652 27.173C52.0522 27.569 52.2261 27.9479 52.3304 28.3439C52.4348 28.74 52.487 29.136 52.6087 29.5321C52.7304 29.9281 52.887 30.2898 53.0261 30.6686C53.1478 31.0474 53.3044 31.4263 53.4435 31.8051C53.5826 32.1839 53.7217 32.5628 53.8609 32.9416C53.9826 33.286 54.087 33.6304 54.2087 33.9748C54.3304 34.3192 54.4696 34.6636 54.5913 35.008C54.7131 35.3524 54.8 35.6968 54.9217 36.0412C55.0435 36.3856 55.1131 36.7472 55.2522 37.0916C55.3913 37.4532 55.4783 37.8149 55.7565 38.142C56.0174 38.4348 56.2957 38.6759 56.6957 38.8136C57.0783 38.9514 57.3739 39.1925 57.6696 39.3991C58 39.623 58.2435 39.8813 58.4696 40.174C58.6957 40.4667 58.9217 40.7767 59.0609 41.1383C59.1826 41.4827 59.2696 41.8443 59.3218 42.2404C59.3565 42.5848 59.3913 42.9292 59.4261 43.2908C59.4609 43.6352 59.4783 43.9796 59.5304 44.3412C59.5652 44.6856 59.6348 45.03 59.6696 45.3744C59.7044 45.7188 59.7391 46.0632 59.7739 46.4248C59.8087 46.7692 59.8957 47.1136 59.9304 47.458C59.9652 47.613 60 47.8541 60 48.0779ZM38.9739 31.3746C38.9739 31.013 39.0783 30.5997 39.0783 30.1864C39.0783 29.8076 38.9739 29.3943 38.9739 28.9983C38.9739 28.6022 39.0087 28.2062 39.0087 27.8101C39.0087 27.3968 38.9739 27.0008 38.9565 26.6047C38.9391 26.1914 39.0261 25.7954 39.0087 25.3821C38.9913 24.986 38.8696 24.5727 38.8348 24.1767C38.8 23.7806 38.8 23.3674 38.7478 22.9713C38.6957 22.5752 38.6261 22.162 38.5391 21.7659C38.4522 21.3354 38.3478 20.9221 38.2435 20.4916C38.1391 20.0784 37.9478 19.6651 37.8435 19.2518C37.7391 18.8385 37.6348 18.408 37.5478 17.9947C37.4609 17.6159 37.4783 17.2026 37.3913 16.8238C37.3044 16.445 37.1652 16.0661 37.0957 15.6701C37.0261 15.274 37.0087 14.8779 36.9565 14.4991C36.887 14.103 36.8522 13.7242 36.7826 13.3281C36.7304 12.9321 36.6087 12.5532 36.5565 12.1572C36.5044 11.7611 36.4522 11.3823 36.4174 10.9862C36.3826 10.6418 36.4 10.2974 36.3652 9.95304C36.3304 9.60864 36.2609 9.28147 36.2261 8.93707C36.1913 8.59267 36.2087 8.24827 36.1913 7.90387C36.1565 7.55947 36.1391 7.21508 36.1044 6.87068C36.0522 6.3713 35.9826 5.8547 35.6 5.45864C35.5304 5.38977 35.4435 5.37255 35.3565 5.35533C34.9739 5.32089 34.7652 5.49308 34.7478 5.88914C34.7478 6.14744 34.7652 6.38852 34.7652 6.64682C34.7478 7.02566 34.7478 7.38728 34.7304 7.76611C34.7131 8.14495 34.6783 8.50657 34.6609 8.88541C34.6435 9.26425 34.6957 9.62586 34.6783 10.0047C34.6609 10.3835 34.5913 10.7452 34.5913 11.124C34.5739 11.5028 34.6609 11.8645 34.6435 12.2433C34.6261 12.6221 34.6087 12.9837 34.5913 13.3626C34.5739 13.7414 34.5044 14.103 34.487 14.4819C34.487 14.8607 34.5217 15.2223 34.5217 15.6012C34.5217 16.0317 34.5044 16.4794 34.5044 16.9099C34.5044 17.3404 34.5565 17.7881 34.5565 18.2186C34.5739 18.6491 34.5913 19.0968 34.5913 19.5273C34.6087 19.8717 34.6087 20.2161 34.6261 20.5605C34.6435 20.9049 34.6087 21.2493 34.6261 21.5937C34.6435 21.9381 34.7652 22.2825 34.7652 22.6269C34.7826 22.9885 34.7478 23.3501 34.7478 23.7118C34.7304 24.0734 34.7652 24.435 34.7304 24.7966C34.6957 25.1582 34.5739 25.5026 34.5217 25.8642C34.4696 26.2259 34.4348 26.5703 34.3652 26.9319C34.2957 27.2763 34.1913 27.6207 34.1044 27.9823C34.0174 28.3267 33.9478 28.6883 33.8435 29.0327C33.7565 29.3599 33.6696 29.6871 33.5826 29.997C33.4957 30.3242 33.4261 30.6514 33.3565 30.9786C33.287 31.3057 33.1826 31.6329 33.1304 31.9601C33.0783 32.2873 33.0261 32.6317 32.9913 32.9588C32.9565 33.3549 32.9739 33.751 32.9391 34.147C32.9217 34.5431 32.8696 34.9391 32.8522 35.318C32.8522 35.714 32.8522 36.1101 32.8522 36.5061C32.8522 36.9022 32.887 37.2983 32.9044 37.6943C32.9217 38.0904 32.9913 38.4692 33.0087 38.8653C33.0261 39.2613 32.9391 39.6574 32.9739 40.0535C33.0087 40.5528 33.6174 41.0522 34.1044 41.0522C34.487 41.0522 34.8696 41.0694 35.2696 41.035C35.6174 41.0005 35.9652 40.9833 36.3131 40.9661C36.6609 40.9489 37.0087 40.8628 37.3565 40.8284C37.7044 40.8111 38.0696 40.8456 38.4174 40.8111C38.5565 40.7939 38.7131 40.725 38.8174 40.6562C39.1652 40.3979 39.3739 40.0707 39.3391 39.5885C39.3044 39.2097 39.3044 38.8136 39.287 38.4176C39.2522 38.0387 39.2 37.6427 39.1826 37.2638C39.1652 36.885 39.1131 36.4889 39.0957 36.0929C39.0783 35.714 39.0957 35.318 39.0783 34.9219C39.0609 34.5431 39.0435 34.147 39.0261 33.751C39.0261 33.3721 38.9913 32.9761 38.9913 32.58C39.0087 32.1667 38.9739 31.7707 38.9739 31.3746ZM32.6609 13.7931C32.6783 13.4659 32.7826 13.0871 32.8 12.691C32.8174 12.3466 32.7131 11.9678 32.7304 11.5889C32.7478 11.2273 32.8 10.8657 32.8 10.4869C32.8174 10.1252 32.8 9.7464 32.8 9.38479C32.8 9.21259 32.9044 9.04039 32.887 8.86819C32.8696 8.69599 32.7652 8.59267 32.5565 8.59267C32.1217 8.59267 32.0696 8.55823 32 8.81653C31.9131 9.17815 31.8261 9.53976 31.7391 9.9186C31.6696 10.2802 31.6 10.6591 31.5304 11.0207C31.4609 11.3823 31.4957 11.7784 31.4435 12.14C31.3913 12.5188 31.3217 12.8804 31.2696 13.242C31.2174 13.6209 31.0609 13.9653 31.0261 14.3441C30.9739 14.723 30.9913 15.1018 30.9565 15.4634C30.9044 15.8767 30.8 16.2728 30.7652 16.686C30.7131 17.0993 30.6609 17.5126 30.6087 17.9086C30.5565 18.3219 30.5739 18.7352 30.5217 19.1485C30.4696 19.5101 30.4174 19.8717 30.3478 20.2333C30.2783 20.5949 30.1565 20.9393 30.0696 21.301C29.9826 21.6626 29.9304 22.0242 29.8261 22.3686C29.7217 22.713 29.5478 23.0574 29.4261 23.4018C29.3044 23.7462 29.1652 24.0906 29.0261 24.4178C28.887 24.7622 28.7652 25.1066 28.6087 25.4337C28.4522 25.7609 28.3478 26.0881 28.1913 26.4153C28.0348 26.7425 27.8609 27.0524 27.7044 27.3624C27.5478 27.6896 27.3913 27.9995 27.2348 28.3267C27.0783 28.6539 26.9217 28.9638 26.7478 29.291C26.5913 29.6182 26.4 29.9109 26.2261 30.2381C26.0696 30.5481 25.9478 30.8925 25.7739 31.2196C25.6 31.564 25.3739 31.8912 25.2174 32.2356C25.0609 32.5972 24.9913 32.9761 24.8696 33.3377C24.7304 33.6993 24.5913 34.0609 24.487 34.4225C24.3826 34.8014 24.2087 35.1458 24.1391 35.5246C24.0522 35.9035 24.0522 36.2995 23.9826 36.6783C23.9304 37.0572 23.8783 37.436 23.8609 37.8321C23.8435 38.2109 23.8609 38.607 23.8609 38.9858C23.8609 39.4163 23.9478 39.7263 24.1565 39.9674C24.3652 40.2257 24.6435 40.3979 25.0609 40.5012C25.3044 40.5528 25.5131 40.725 25.7565 40.7422C26.0522 40.7767 26.3826 40.7422 26.6783 40.7078C27.0261 40.6561 27.3565 40.5528 27.7044 40.4667C28.1217 40.3634 28.5565 40.2601 28.9739 40.2429C29.3913 40.2257 29.8261 40.329 30.2609 40.3634C30.6957 40.3979 31.2348 39.8468 31.2174 39.3991C31.2 38.9342 31.2174 38.4864 31.2 38.0215C31.1826 37.5566 31.1478 37.1088 31.1304 36.6439C31.1304 36.2479 31.1131 35.8518 31.1131 35.4557C31.1131 35.0597 31.1131 34.6636 31.1304 34.2676C31.1478 33.8715 31.2174 33.4754 31.2522 33.0794C31.287 32.6833 31.3391 32.2873 31.4087 31.8912C31.4609 31.4952 31.4957 31.0991 31.5652 30.703C31.6348 30.307 31.7565 29.9281 31.8609 29.5493C31.9652 29.1705 32.0522 28.7744 32.1739 28.3956C32.2783 28.0512 32.3478 27.6896 32.4348 27.3452C32.5217 27.0008 32.5391 26.6391 32.6087 26.2775C32.6783 25.9331 32.8348 25.5887 32.887 25.2271C32.9391 24.8655 32.8522 24.5039 32.887 24.1423C32.9044 23.7806 33.0261 23.4362 33.0261 23.0746C33.0261 22.713 33.0087 22.3514 32.9913 21.9898C32.9739 21.542 32.8522 21.1115 32.8174 20.6638C32.7826 20.2161 32.8174 19.7856 32.8 19.3379C32.8 18.9591 32.7652 18.5974 32.7652 18.2186C32.7652 17.857 32.7478 17.4781 32.7478 17.0993C32.7478 16.7377 32.7826 16.3589 32.7826 15.98C32.7826 15.6184 32.7652 15.2396 32.7652 14.8435C32.7478 14.5508 32.6609 14.1891 32.6609 13.7931ZM20.7478 40.1912C21.2174 40.2084 21.5478 40.0362 21.7913 39.7091C21.8957 39.5713 21.9131 39.3474 21.9131 39.1752C21.9478 38.6586 21.9652 38.142 22 37.6254C22.0348 37.2638 22.0348 36.9194 22.0696 36.5578C22.1217 36.1962 22.2783 35.869 22.3304 35.5246C22.4 35.1802 22.3826 34.8014 22.4696 34.457C22.5565 34.1126 22.7131 33.7854 22.8174 33.441C22.9217 33.0966 23.0609 32.7694 23.2 32.4422C23.3565 32.0634 23.5304 31.6846 23.7044 31.3057C23.8783 30.9269 23.9826 30.5136 24.1739 30.152C24.3652 29.7904 24.5565 29.4115 24.7478 29.0499C24.9217 28.7055 25.1826 28.4128 25.3565 28.0684C25.5304 27.724 25.6348 27.3624 25.8087 27.018C25.9826 26.6736 26.1913 26.3636 26.3478 26.002C26.5044 25.6576 26.6783 25.3132 26.8348 24.9688C26.9913 24.6244 27.0609 24.2456 27.2174 23.884C27.3565 23.5223 27.4783 23.1779 27.6174 22.8163C27.7565 22.4375 27.9131 22.0931 28.0174 21.7142C28.1217 21.3354 28.1913 20.9393 28.2783 20.5605C28.3652 20.1817 28.5044 19.8028 28.5739 19.424C28.6435 19.0452 28.7304 18.6491 28.7826 18.2703C28.8348 17.8742 28.8696 17.4954 28.9217 17.0993C28.9739 16.7032 28.9739 16.3072 29.0261 15.9284C29.0783 15.5151 29.1652 15.1018 29.2174 14.6713C29.2696 14.258 29.3217 13.8447 29.3913 13.4142C29.4435 13.001 29.5131 12.5877 29.5826 12.1572C29.6348 11.7439 29.7391 11.3306 29.7913 10.9174C29.8609 10.418 29.8783 9.90138 29.9131 9.40201C29.9131 9.29869 29.8609 9.10927 29.7739 9.07483C29.6174 9.00595 29.4609 9.07483 29.3565 9.26425C29.2696 9.40201 29.1652 9.52254 29.1131 9.6603C28.9391 10.0219 28.7131 10.3663 28.5565 10.7279C28.4 11.0896 28.3131 11.4856 28.1739 11.8645C28.0348 12.2433 27.9131 12.6221 27.7913 13.001C27.6696 13.3798 27.6 13.7759 27.4957 14.1547C27.3913 14.5335 27.3044 14.9124 27.2174 15.274C27.1304 15.6528 27.0087 16.0145 26.887 16.3933C26.7826 16.7549 26.5739 17.0993 26.4348 17.4609C26.2783 17.8225 26.1913 18.2358 26.0174 18.5802C25.8435 18.9418 25.6348 19.2862 25.4435 19.6306C25.2522 19.975 25.0957 20.3539 24.887 20.6983C24.6783 21.0427 24.4 21.3354 24.1739 21.6626C23.9652 22.007 23.7565 22.3514 23.5304 22.6786C23.3217 22.9885 23.0957 23.2813 22.887 23.5912C22.6783 23.9012 22.487 24.2283 22.2783 24.5383C22.0696 24.8483 21.8783 25.1582 21.6696 25.4682C21.4609 25.7781 21.2696 26.0881 21.0609 26.3981C20.8522 26.708 20.6087 27.0008 20.4 27.3107C20.1913 27.6207 19.9826 27.9306 19.7739 28.2406C19.5478 28.6022 19.3565 28.981 19.1478 29.3427C18.9391 29.7043 18.7131 30.0659 18.5217 30.4447C18.3304 30.8236 18.1739 31.2196 18.0348 31.5985C17.8783 31.9945 17.7739 32.3906 17.6696 32.8039C17.5652 33.1827 17.5131 33.5788 17.4261 33.9576C17.3391 34.3364 17.1478 34.6981 17.0609 35.0941C16.9739 35.473 17.0087 35.8862 16.9391 36.2651C16.8696 36.6611 16.7131 37.0227 16.6609 37.4188C16.6087 37.8149 16.5565 38.1937 16.5217 38.5898C16.4696 39.0719 17.0087 39.623 17.4957 39.623C17.8783 39.623 18.2609 39.7091 18.6261 39.7779C19.0087 39.8468 19.3739 39.9157 19.7391 40.0362C20.0522 40.1568 20.4174 40.1223 20.7478 40.1912ZM10.4174 38.2626C10.4174 38.2626 10.4174 38.3659 10.4348 38.4003C10.6609 38.7964 10.8696 39.158 11.3913 39.1752C11.5478 39.1752 11.687 39.158 11.8435 39.158C12.1739 39.1752 12.5044 39.2958 12.8174 39.3474C13.1478 39.3991 13.4783 39.4163 13.7913 39.5713C13.8435 39.5885 13.8957 39.6574 13.9478 39.6574C14.3304 39.6057 14.7131 39.2441 14.7652 38.8481C14.8174 38.452 14.8696 38.0387 14.9217 37.6427C14.9739 37.2466 14.9391 36.8333 14.9913 36.4201C15.0435 36.024 15.1131 35.6107 15.2 35.2147C15.2696 34.8703 15.4261 34.5431 15.4957 34.1987C15.5652 33.8543 15.5826 33.4927 15.6696 33.1483C15.7565 32.8039 15.8957 32.4767 16 32.1495C16.1044 31.8051 16.2261 31.4779 16.3478 31.1508C16.4696 30.8236 16.5391 30.462 16.6783 30.152C16.8174 29.842 16.9565 29.5149 17.1131 29.2221C17.2696 28.9122 17.4783 28.6366 17.6522 28.3267C17.8261 28.034 17.9652 27.7068 18.1391 27.414C18.3131 27.1213 18.5565 26.863 18.7304 26.5703C18.9217 26.2775 19.1131 26.002 19.3044 25.7093C19.5131 25.3821 19.7217 25.0377 19.9304 24.7105C20.1565 24.3833 20.3304 24.0389 20.5565 23.7118C20.7826 23.3846 21.0261 23.0746 21.2348 22.7474C21.4609 22.4203 21.6696 22.0931 21.8783 21.7659C22.087 21.4387 22.3131 21.1115 22.5217 20.7844C22.7304 20.4572 22.9739 20.1472 23.1826 19.8201C23.3913 19.4929 23.5478 19.1313 23.7391 18.8041C23.9304 18.4597 24.1565 18.1497 24.3304 17.8053C24.5044 17.4609 24.5739 17.0649 24.7304 16.7205C24.8696 16.3589 25.0261 16.0145 25.1304 15.6356C25.2522 15.274 25.4087 14.9124 25.4957 14.5335C25.5652 14.1891 25.6 13.8275 25.7044 13.4831C25.7913 13.1387 25.8957 12.7943 26 12.4499C26.1044 12.1055 26.1739 11.7611 26.2957 11.4167C26.4174 11.0723 26.5391 10.7452 26.6609 10.418C26.7826 10.0908 26.9391 9.76362 27.0957 9.43645C27.2348 9.10927 27.4435 8.81653 27.6 8.48935C27.7565 8.16217 27.8435 7.81777 28 7.49059C28.1739 7.18064 28.3652 6.87068 28.5565 6.57794C28.7304 6.26798 28.887 5.9408 29.0783 5.64806C29.1478 5.54474 29.3044 5.47586 29.3217 5.37255C29.3565 5.21757 29.3565 5.02815 29.287 4.90761C29.2 4.73541 28.9565 4.68375 28.7826 4.75263C28.5739 4.82151 28.3652 4.94205 28.1913 5.06259C27.8783 5.26923 27.6 5.5103 27.3217 5.7686C27.0609 6.0269 26.8174 6.31964 26.5913 6.61238C26.3652 6.90512 26.1217 7.18064 25.9304 7.50781C25.7217 7.85221 25.5131 8.19661 25.3217 8.54101C25.1304 8.88541 24.9913 9.26425 24.8174 9.62586C24.6435 9.98748 24.4522 10.3319 24.2957 10.6935C24.1391 11.0551 24 11.434 23.8609 11.8128C23.7217 12.1916 23.6174 12.5705 23.4957 12.9493C23.3739 13.3281 23.3044 13.7242 23.2 14.103C23.0957 14.4819 22.8696 14.8435 22.7304 15.2051C22.5913 15.584 22.5391 15.9972 22.3652 16.3416C22.1913 16.7032 21.9304 17.0132 21.7391 17.3576C21.5478 17.702 21.3391 18.0464 21.1131 18.3736C20.887 18.7008 20.6957 19.0624 20.4522 19.3723C20.2087 19.6823 19.8957 19.9406 19.6 20.2161C19.3391 20.4744 19.1131 20.7499 18.8522 21.0082C18.5913 21.2665 18.3478 21.5248 18.087 21.7831C17.8261 22.0414 17.5478 22.2825 17.3044 22.5408C17.0435 22.7991 16.8174 23.0746 16.5739 23.3329C16.3304 23.5912 16.1044 23.884 15.8609 24.1595C15.6348 24.435 15.3913 24.7105 15.1652 25.0032C14.9565 25.296 14.7652 25.6059 14.5739 25.9159C14.3826 26.2259 14.2261 26.5358 14.0522 26.863C13.8783 27.1902 13.687 27.4829 13.5478 27.8273C13.4087 28.1545 13.3739 28.5333 13.2522 28.8777C13.1304 29.2221 12.9391 29.5321 12.8348 29.8765C12.7478 30.2209 12.7478 30.5825 12.6783 30.9441C12.5913 31.3402 12.5044 31.7535 12.4174 32.1495C12.3131 32.5456 12.1565 32.9244 12.0348 33.3205C11.9131 33.7165 11.7739 34.0954 11.6174 34.4742C11.4609 34.853 11.287 35.2147 11.1131 35.5935C10.9044 36.0068 10.7478 36.4545 10.6261 36.9022C10.487 37.3155 10.4522 37.7804 10.4174 38.2626ZM40.887 32.3561C40.9044 32.7522 40.8696 33.1483 40.887 33.5271C40.9044 33.9059 40.9391 34.302 40.9565 34.6981C40.9739 35.0941 40.8696 35.4902 40.887 35.869C40.9044 36.2651 40.9913 36.6439 41.0087 37.04C41.0261 37.436 40.9913 37.8149 41.0261 38.2109C41.0609 38.5898 41.0783 38.9858 41.1131 39.3647C41.1478 39.8296 41.7913 40.2601 42.2435 40.174C42.6087 40.1051 42.9391 39.9329 43.3044 39.8813C43.6696 39.8296 44.0348 39.7952 44.4 39.7779C44.7652 39.7607 45.1304 39.8813 45.4957 39.9329C45.8957 39.9846 46.2957 39.9329 46.6783 39.8813C47.0609 39.8296 47.4609 39.7779 47.8261 39.6574C48.3131 39.4852 48.6957 38.8308 48.5913 38.3487C48.5044 37.9526 48.3304 37.5738 48.2435 37.1777C48.1565 36.7817 48.0348 36.3856 47.9478 35.9896C47.8435 35.5935 47.7913 35.1974 47.6696 34.8186C47.5652 34.4225 47.4087 34.0609 47.287 33.6649C47.1652 33.286 47.0957 32.8727 46.9739 32.4939C46.8522 32.1151 46.7304 31.719 46.5913 31.3402C46.4522 30.9613 46.2957 30.5997 46.1565 30.2209C46.0174 29.842 45.8435 29.4804 45.687 29.1016C45.5478 28.7227 45.4261 28.3439 45.287 27.9651C45.1478 27.6207 45.0087 27.2763 44.8696 26.9319C44.7304 26.5875 44.6087 26.2431 44.4696 25.8987C44.3304 25.5543 44.2435 25.1927 44.1217 24.8483C44 24.5039 43.8261 24.1595 43.7217 23.8151C43.6174 23.4707 43.5826 23.0918 43.4957 22.7302C43.4087 22.3686 43.2348 22.0414 43.1304 21.697C43.0261 21.3526 42.9391 21.0082 42.8 20.6638C42.6783 20.3194 42.6087 19.9578 42.4522 19.6306C42.3131 19.3035 42.1044 18.9935 41.9304 18.6663C41.7739 18.3391 41.6 18.0292 41.4087 17.702C41.2174 17.3748 41.0087 17.0649 40.8348 16.7377C40.6609 16.4105 40.487 16.0661 40.3131 15.7389C40.1391 15.4118 39.9826 15.0501 39.8261 14.723C39.6348 14.3269 39.5652 13.8792 39.4087 13.4659C39.3218 13.2076 39.0609 13.3454 38.8696 13.3626C38.6783 13.3626 38.6783 13.4831 38.6783 13.6209C38.6783 13.8275 38.7131 14.0342 38.7478 14.2408C38.8174 14.6196 38.8174 15.0157 38.887 15.3945C38.9565 15.7734 39.0435 16.1522 39.1304 16.531C39.2 16.9099 39.2522 17.2887 39.3391 17.6676C39.4261 18.0464 39.5304 18.408 39.6348 18.7869C39.7391 19.1657 39.8435 19.5618 39.9304 19.9406C40.0174 20.3367 40.1217 20.7155 40.1913 21.1115C40.2609 21.5076 40.2957 21.9037 40.3652 22.2997C40.4348 22.6958 40.4696 23.0918 40.5217 23.4879C40.5739 23.884 40.6435 24.28 40.6783 24.6761C40.7131 25.0721 40.6957 25.4682 40.7131 25.8815C40.7304 26.2775 40.7478 26.6736 40.7478 27.0696C40.7478 27.414 40.7826 27.7584 40.7826 28.0856C40.7826 28.43 40.8348 28.7744 40.8348 29.1016C40.8348 29.4288 40.7304 29.7904 40.7304 30.1176C40.7826 30.4964 40.887 31.9601 40.887 32.3561ZM6.97392 39.6574C7.16522 39.6402 7.35653 39.5196 7.54783 39.4852C7.96523 39.4163 8.46957 38.8825 8.48696 38.4692C8.50436 38.0732 8.50436 37.6771 8.57392 37.2983C8.64349 36.9194 8.8174 36.5578 8.93914 36.179C9.04349 35.8001 9.11305 35.4213 9.26957 35.0597C9.44349 34.6981 9.65218 34.3537 9.8087 33.9748C9.96523 33.596 10.1044 33.2344 10.2261 32.8555C10.3478 32.4767 10.4522 32.0979 10.5565 31.7018C10.6609 31.323 10.6609 30.9097 10.7304 30.5136C10.8 30.152 10.887 29.8076 10.9739 29.4632C11.0609 29.1188 11.2696 28.7916 11.3739 28.4645C11.4783 28.1201 11.5478 27.7584 11.687 27.4313C11.8261 27.1041 12.0174 26.7941 12.1739 26.4669C12.3304 26.1398 12.5044 25.8298 12.6783 25.5198C12.8522 25.2099 12.9739 24.8655 13.1826 24.5555C13.3739 24.2628 13.5826 23.9528 13.7913 23.6601C14 23.3674 14.2609 23.1263 14.5044 22.8508C14.7304 22.5752 14.9391 22.2825 15.2 22.0242C15.4609 21.7487 15.7565 21.5248 16.0174 21.2493C16.2783 20.9738 16.5565 20.7327 16.8174 20.4572C17.0783 20.1989 17.3217 19.9062 17.5826 19.6306C17.8435 19.3723 18.087 19.0796 18.3478 18.8041C18.6087 18.5286 18.8696 18.2875 19.0957 17.9947C19.3217 17.702 19.5478 17.4093 19.7565 17.0993C19.9652 16.7893 20.1565 16.4794 20.3304 16.1522C20.5044 15.825 20.6957 15.5151 20.8348 15.1707C20.9739 14.8263 21.0435 14.4647 21.1478 14.1203C21.2696 13.7414 21.4261 13.3626 21.5652 12.9837C21.687 12.6049 21.7391 12.1916 21.8783 11.8128C22.0174 11.434 22.1739 11.0551 22.3304 10.6935C22.487 10.3147 22.7131 9.97026 22.8696 9.60864C23.0261 9.24703 23.1478 8.85097 23.3217 8.48935C23.4957 8.12773 23.687 7.76611 23.8783 7.42171C24.0696 7.0601 24.2435 6.69848 24.4696 6.3713C24.6957 6.0269 24.9217 5.69972 25.1652 5.38977C25.4087 5.07981 25.687 4.78707 25.9826 4.49433C26.2609 4.21881 26.6087 3.99495 26.9391 3.73665C27.0261 3.66777 26.9913 3.44391 26.9565 3.3406C26.9044 3.22006 26.8 3.0823 26.6783 3.0823C26.4696 3.06508 26.2783 3.15118 26.0696 3.22006C25.5652 3.39226 25.0957 3.65055 24.7131 4.01217C24.4522 4.25325 24.2435 4.52877 24.0174 4.78707C23.7913 5.06259 23.5652 5.32089 23.3739 5.61362C23.1826 5.90636 23.0261 6.21632 22.8696 6.52628C22.6957 6.85346 22.5391 7.18064 22.3826 7.50781C22.2087 7.83499 22.0696 8.16217 21.8957 8.48935C21.7391 8.81653 21.5304 9.12649 21.3739 9.45367C21.2174 9.78084 21.0435 10.108 20.887 10.4352C20.7304 10.7624 20.6087 11.1068 20.4522 11.434C20.2957 11.7611 20.1044 12.0539 19.9478 12.3638C19.7739 12.6738 19.6174 12.9837 19.4435 13.2937C19.2522 13.6037 19.0957 13.9136 18.887 14.1891C18.6783 14.4819 18.5044 14.7918 18.2783 15.0674C18.0522 15.3429 17.7391 15.5151 17.4783 15.7734C17.2348 16.0145 17.0609 16.3244 16.8174 16.5655C16.5739 16.8066 16.2609 16.9788 16.0174 17.2026C15.7739 17.4437 15.5304 17.6848 15.287 17.9086C15.0087 18.1669 14.7826 18.4769 14.5044 18.7524C14.2261 19.0107 13.9131 19.2346 13.6348 19.5101C13.3565 19.7856 13.1131 20.0611 12.8348 20.3367C12.5739 20.6122 12.3131 20.8877 12.0522 21.1632C11.7913 21.4387 11.5131 21.697 11.2522 21.9898C11.0087 22.2825 10.7826 22.5925 10.5391 22.8852C10.2957 23.1779 10.087 23.5051 9.87827 23.8151C9.66957 24.125 9.44349 24.4522 9.25218 24.7794C9.07827 25.1238 8.93914 25.4682 8.80001 25.8298C8.67827 26.1914 8.59131 26.553 8.52175 26.9319C8.45218 27.2763 8.34783 27.6207 8.29566 27.9651C8.24349 28.3095 8.29566 28.6711 8.24349 29.0327C8.19131 29.3771 8.05218 29.7215 8.00001 30.0659C7.94783 30.4447 7.98262 30.8236 7.89566 31.168C7.8087 31.5296 7.70435 31.8912 7.58262 32.2356C7.46088 32.58 7.25218 32.9072 7.07827 33.2344C6.90436 33.5615 6.69566 33.8715 6.46957 34.1642C6.22609 34.4742 6.00001 34.8014 5.8087 35.1458C5.6174 35.4902 5.44349 35.8518 5.28696 36.2134C5.13044 36.575 5.0087 36.9539 4.88696 37.3327C4.78262 37.7115 4.64349 38.0904 4.57392 38.4692C4.50436 38.8308 4.95653 39.3819 5.33914 39.4163C5.87827 39.5024 6.97392 39.6574 6.97392 39.6574ZM51.4783 38.8481C51.8609 38.7447 52.4348 38.7447 52.9565 38.5553C53.4435 38.3831 53.6 37.7804 53.4435 37.3155C53.3217 36.9883 53.2522 36.6611 53.1304 36.334C53.0087 36.0068 52.8696 35.6968 52.7478 35.3696C52.6261 35.0425 52.6087 34.6981 52.487 34.3709C52.3652 34.0437 52.1739 33.751 52.0522 33.441C51.9131 33.0794 51.8261 32.6833 51.7044 32.3217C51.5652 31.9429 51.4609 31.5813 51.3391 31.2024C51.2174 30.8236 51.0957 30.462 50.9739 30.0831C50.8522 29.7043 50.6609 29.3599 50.5565 28.981C50.4522 28.6022 50.3652 28.2234 50.2783 27.8273C50.1913 27.4485 50.2087 27.0352 50.1391 26.6564C50.0696 26.312 49.9478 26.002 49.8783 25.6576C49.8087 25.3132 49.7913 24.9688 49.7044 24.6416C49.6174 24.3145 49.5478 23.9701 49.4609 23.6429C49.3739 23.3157 49.2 23.0057 49.0957 22.6786C48.9913 22.3514 48.8696 22.0414 48.7478 21.7142C48.6261 21.3698 48.5217 21.0082 48.3652 20.6638C48.2087 20.3194 48.0174 20.0095 47.8435 19.6823C47.6696 19.3551 47.5304 19.0107 47.3218 18.7008C47.1131 18.3908 46.9044 18.0808 46.6783 17.7881C46.4522 17.4954 46.1739 17.2371 45.9131 16.9615C45.6522 16.7032 45.3565 16.4794 45.0609 16.2383C44.7478 15.98 44.487 15.6873 44.2087 15.4118C43.9304 15.1362 43.6696 14.8263 43.4261 14.5335C43.1826 14.2236 42.9565 13.8964 42.7478 13.5692C42.5391 13.242 42.3652 12.8804 42.1739 12.536C41.9478 12.1055 41.6696 11.6923 41.4435 11.2445C41.3391 11.0551 41.1826 11.0207 41.0087 11.0379C40.8174 11.0723 40.9044 11.2445 40.9044 11.3823C40.9044 11.5201 40.8696 11.6406 40.9044 11.7784C40.9913 12.1228 41.0261 12.4844 41.1131 12.8288C41.2 13.1732 41.3565 13.5003 41.4783 13.8275C41.6 14.1891 41.7565 14.5335 41.9131 14.8779C42.087 15.2223 42.2957 15.5323 42.487 15.8767C42.6783 16.2039 42.8696 16.531 43.0609 16.8582C43.2696 17.2198 43.4609 17.5815 43.6522 17.9603C43.8435 18.3219 43.9652 18.7352 44.1391 19.0968C44.3131 19.4757 44.5565 19.8201 44.6783 20.2161C44.8174 20.6122 44.9044 21.0082 45.0087 21.4215C45.0957 21.8176 45.2522 22.1964 45.3565 22.5925C45.4609 22.9885 45.4957 23.4018 45.6174 23.7806C45.7391 24.1595 45.8957 24.5383 46.0348 24.9344C46.1739 25.3132 46.2957 25.7093 46.4348 26.0881C46.5739 26.4497 46.7304 26.7941 46.887 27.1557C47.0261 27.5174 47.1826 27.8618 47.3044 28.2234C47.4435 28.585 47.6 28.9294 47.7217 29.291C47.8609 29.6526 47.9478 30.0315 48.0696 30.3931C48.1913 30.7547 48.3131 31.1163 48.4348 31.4779C48.5565 31.8396 48.7131 32.184 48.8348 32.5628C48.9565 32.9244 49.0261 33.3032 49.1478 33.6649C49.2522 34.0265 49.3739 34.4053 49.4783 34.7669C49.5826 35.1286 49.7044 35.4902 49.8087 35.869C49.8957 36.2479 50.0522 36.6095 50.1391 36.9711C50.2261 37.3499 50.1913 37.746 50.2783 38.1248C50.3826 38.452 50.9913 38.8653 51.4783 38.8481ZM34.3652 50.2476C34.3478 49.9377 34.4348 49.5072 34.4 49.0422C34.3826 48.6634 34.2435 48.2673 34.2261 47.8541C34.1913 47.5097 34.2087 47.1653 34.1739 46.8209C34.1391 46.4765 34.0522 46.1321 34.0174 45.7877C33.9652 45.4433 34.0174 45.0817 33.9304 44.7373C33.8609 44.3929 33.7044 44.0829 33.6 43.7385C33.5131 43.4286 33.4087 43.1358 33.2 42.9292C32.9913 42.7225 32.7131 42.5503 32.4 42.4815C32.0348 42.3954 31.6522 42.3093 31.287 42.2576C30.9044 42.2059 30.5217 42.2404 30.1391 42.2232C29.7565 42.2059 29.3913 42.1887 29.0087 42.1887C28.5217 42.2059 28.087 42.2404 27.7913 42.4815C27.4957 42.7225 27.3391 43.1358 27.2522 43.618C27.1826 43.9968 27.1131 44.3756 27.1304 44.7373C27.1478 45.1161 27.2174 45.4949 27.287 45.8566C27.3739 46.2871 27.5304 46.6831 27.6174 47.1136C27.7044 47.5269 27.8261 47.9574 27.9131 48.3707C27.9826 48.7323 28 49.0939 28.0522 49.4555C28.087 49.8171 28.1739 50.1788 28.1913 50.5404C28.2087 50.902 28.1739 51.2636 28.2087 51.6252C28.2261 51.9869 28.2435 52.3312 28.2957 52.6756C28.3478 53.02 28.4696 53.3644 28.5913 53.6916C28.7304 54.036 28.9391 54.3115 29.1826 54.5354C29.4261 54.7593 29.7217 54.9487 30.1044 55.0003C30.5565 55.0692 31.0087 55.1037 31.4609 55.1381C31.9131 55.1725 32.3652 55.207 32.8174 55.2242C33.1478 55.2414 33.4783 55.1381 33.7044 54.9315C33.9304 54.7248 34.0522 54.4149 34.1217 54.0877C34.1913 53.6744 34.3131 53.2611 34.3478 52.8134C34.3826 52.4001 34.3304 51.9696 34.3478 51.5219C34.3478 51.1259 34.3652 50.6954 34.3652 50.2476ZM24.3304 54.9659C24.3304 54.9659 25.3739 54.897 25.9131 54.8454C26.4 54.7937 26.7652 54.2599 26.6609 53.7949C26.6087 53.5194 26.5044 53.2267 26.4696 52.9512C26.4174 52.6584 26.487 52.3657 26.4522 52.073C26.4174 51.6769 26.3131 51.2808 26.2783 50.8848C26.2609 50.4887 26.2783 50.0754 26.2261 49.6794C26.1739 49.3694 26.1391 49.0422 26.0696 48.7323C26 48.4223 25.9304 48.0952 25.8783 47.7852C25.8087 47.4752 25.6522 47.1825 25.5826 46.8553C25.5131 46.4937 25.4435 46.1149 25.3913 45.736C25.3391 45.3572 25.3913 44.9783 25.3913 44.5995C25.3739 44.2207 25.3217 43.8591 25.3739 43.4802C25.4435 43.0153 25.0783 42.3609 24.6261 42.2576C24.2261 42.1715 23.8435 42.0854 23.4435 42.0165C23.0435 41.9476 22.6435 41.9649 22.2435 41.9132C21.8261 41.8788 21.4435 41.9821 21.0957 42.1887C20.7478 42.3781 20.4174 42.6364 20.1913 42.9808C19.9652 43.3252 19.8783 43.7213 19.8783 44.1174C19.8783 44.479 19.8261 44.8578 19.8435 45.2194C19.8609 45.581 19.8609 45.9599 19.8957 46.3215C19.9304 46.6831 20 47.0447 20.0348 47.4064C20.087 47.768 20.1739 48.1296 20.2261 48.4912C20.2783 48.8528 20.3131 49.2144 20.3826 49.5761C20.4522 49.9377 20.5391 50.2821 20.6261 50.6437C20.7131 50.9709 20.7826 51.2981 20.8696 51.6252C20.9565 51.9524 21.0261 52.2968 21.1478 52.6068C21.2696 52.9167 21.4609 53.2095 21.6174 53.5194C21.7913 53.8294 21.9478 54.1393 22.1739 54.3632C22.4174 54.6043 22.7478 54.7076 23.0783 54.8281C23.3739 54.9315 23.687 55.0003 24.0696 54.9659C24.1565 54.9831 24.2435 54.9659 24.3304 54.9659ZM38.2435 42.5676C37.9304 42.5848 37.6174 42.4987 37.3044 42.5159C36.9913 42.5331 36.6957 42.6537 36.3826 42.6881C36.1913 42.7053 36 42.757 35.8609 42.8775C35.5478 43.1358 35.4609 43.4286 35.5652 43.8763C35.6522 44.2379 35.6348 44.6339 35.687 44.9956C35.7565 45.3744 35.8957 45.7188 35.9478 46.0976C36 46.4765 35.9826 46.8553 36.0174 47.2169C36.0522 47.5958 36.0696 47.9746 36.087 48.3362C36.1217 48.7323 36.1391 49.1111 36.1565 49.5072C36.1739 49.9032 36.2783 50.2821 36.2783 50.6781C36.2783 51.0742 36.2609 51.4703 36.2435 51.8491C36.2261 52.2452 36.1044 52.624 36.0522 53.02C36.0174 53.4161 36.0348 53.8122 35.9652 54.191C35.8957 54.6904 36.2783 55.3103 36.7826 55.362C37.287 55.4136 37.8087 55.4481 38.3304 55.4653C38.8174 55.4825 39.2 55.2931 39.5478 55.0692C39.8957 54.8626 40.1565 54.5354 40.4 54.1393C40.6087 53.7949 40.8174 53.4505 40.9565 53.0717C41.0957 52.6929 41.1478 52.2968 41.2174 51.9008C41.287 51.5047 41.3739 51.1086 41.3739 50.7126C41.3739 50.3682 41.3739 50.0066 41.3739 49.6622C41.3565 49.3178 41.3217 48.9561 41.287 48.6117C41.2696 48.2673 41.2 47.923 41.1652 47.5613C41.1304 47.2169 41.1131 46.8553 41.0783 46.5109C41.0261 46.1665 40.9739 45.8221 40.9044 45.4777C40.8522 45.1333 40.7826 44.7889 40.7131 44.4445C40.6435 44.1001 40.5913 43.7557 40.5217 43.4113C40.4174 42.9636 39.7913 42.5331 39.3218 42.5331C38.9739 42.5503 38.6261 42.5676 38.2435 42.5676ZM10.6783 41.035C10.6783 41.0178 9.79131 40.9833 9.35653 41.035C8.88696 41.0866 8.48696 41.2244 8.17392 41.4999C7.86088 41.7927 7.70436 42.1715 7.65218 42.6364C7.6174 43.0153 7.53044 43.4113 7.54783 43.7902C7.58262 44.2207 7.66957 44.6512 7.65218 45.0817C7.63479 45.5122 7.53044 45.9427 7.47827 46.3732C7.42609 46.8381 7.35653 47.2858 7.35653 47.7508C7.35653 48.1985 7.39131 48.6634 7.49566 49.1283C7.58262 49.5072 7.77392 49.8516 7.89566 50.2132C8.0174 50.5748 8.15653 50.9364 8.33044 51.2808C8.50436 51.6252 8.6087 52.0041 8.8174 52.3312C9.02609 52.6584 9.30436 52.9339 9.54783 53.2267C9.79131 53.5194 10.0174 53.8466 10.2783 54.1221C10.5391 54.3804 10.8 54.6043 11.0783 54.7593C11.3739 54.9315 11.7217 55.0003 12.0522 55.0692C12.3826 55.1381 12.6957 55.1381 13.0435 55.0864C13.3565 55.052 13.687 55.0003 14.0348 54.8626C14.6783 54.6043 14.7826 54.0705 14.3304 53.5711C14.0348 53.2439 13.7913 52.8823 13.4957 52.5379C13.2 52.2107 12.9391 51.8663 12.6435 51.5219C12.3478 51.1947 12.087 50.8503 11.9131 50.4887C11.7217 50.1099 11.5478 49.7138 11.4783 49.2833C11.4087 48.8873 11.4261 48.4568 11.4783 48.009C11.5304 47.5441 11.5652 47.0964 11.6 46.6315C11.6348 46.1665 11.687 45.7188 11.7565 45.2539C11.8087 44.875 11.9131 44.5134 11.9826 44.1518C12.0522 43.7902 12.0696 43.4113 12.1391 43.0325C12.2087 42.6709 12.3478 42.3093 12.4174 41.9304C12.4348 41.8788 12.3652 41.8271 12.3478 41.7754C12.2609 41.3794 11.9304 41.0522 11.5131 41.035C11.2522 41.0178 10.9739 41.035 10.6783 41.035ZM53.2174 49.18C53.1826 48.8012 53.2522 48.4051 53.2348 48.0263C53.2 47.6474 53.0783 47.2686 53.0435 46.8898C53.0087 46.5109 53.0261 46.1149 52.9913 45.736C52.9565 45.3572 52.887 44.9783 52.8696 44.5823C52.8348 44.2379 52.887 43.8935 52.8174 43.5663C52.7478 43.2391 52.5739 42.9292 52.4522 42.6192C52.3304 42.3093 52.2435 41.9821 52.0696 41.6721C51.8783 41.3449 51.6522 41.0866 51.3739 40.9317C51.0783 40.7767 50.7131 40.725 50.3652 40.7939C49.8609 40.8972 49.3739 41.1039 48.8696 41.2416C48.3478 41.3966 48.0522 41.9304 48.2087 42.447C48.2957 42.7742 48.2957 43.1186 48.3826 43.4458C48.4696 43.773 48.6435 44.0657 48.7304 44.3929C48.8522 44.7545 48.887 45.1333 48.9565 45.4949C49.0435 45.8566 49.0957 46.2182 49.1304 46.597C49.1652 46.9759 49.2696 47.3375 49.2696 47.6991C49.2696 48.0779 49.2696 48.4395 49.2348 48.8184C49.2 49.18 49.0957 49.5588 49.0261 49.9205C48.9565 50.2476 48.9391 50.592 48.8522 50.9192C48.7652 51.2464 48.6261 51.5564 48.5391 51.8663C48.4348 52.1935 48.3304 52.5035 48.2087 52.8134C48.1044 53.1234 48.0174 53.4505 47.8957 53.7605C47.8087 53.9844 47.8609 54.1566 47.9826 54.3632C48.2435 54.8626 48.6783 54.9831 49.1826 55.0003C49.5131 55.0176 49.8435 55.0003 50.1565 54.9487C50.4696 54.897 50.7826 54.8109 51.0957 54.6904C51.3913 54.5698 51.7044 54.4665 51.9826 54.2943C52.2609 54.1393 52.4522 53.8983 52.6261 53.6572C52.8 53.4161 52.9565 53.1578 53.0087 52.8478C53.0783 52.4346 53.0435 52.0213 53.0957 51.608C53.1304 51.1947 53.1826 50.7987 53.2 50.3854C53.2 50.0066 53.2 49.5933 53.2174 49.18ZM17.3044 41.4483C16.9739 41.4999 16.6435 41.431 16.3131 41.4827C15.9826 41.5344 15.6696 41.6721 15.3565 41.741C15.0087 41.8099 14.7131 41.9304 14.487 42.1543C14.2609 42.3781 14.1565 42.6709 14.0696 43.0153C13.9826 43.4113 13.8087 43.7902 13.7391 44.1862C13.6696 44.5823 13.7044 44.9956 13.6522 45.4088C13.6 45.8049 13.4957 46.201 13.4609 46.6142C13.4261 47.0103 13.3565 47.4236 13.3217 47.8196C13.2696 48.2846 13.3044 48.7495 13.4087 49.1628C13.5131 49.5761 13.7913 49.9377 14.1044 50.3165C14.3478 50.6093 14.5913 50.902 14.8348 51.1947C15.0783 51.4875 15.2522 51.8319 15.5131 52.1246C15.7739 52.4001 16.087 52.6412 16.3478 52.9167C16.6261 53.1922 16.8522 53.485 17.1478 53.7433C17.5826 54.1221 18.0696 54.4665 18.6609 54.5526C19.2522 54.6387 19.7217 54.0188 19.5131 53.4678C19.4609 53.3128 19.3739 53.1406 19.3217 52.9856C19.2174 52.6412 19.1478 52.2968 19.0435 51.9524C18.9391 51.608 18.8174 51.2808 18.7304 50.9364C18.6435 50.592 18.6261 50.2304 18.5565 49.886C18.487 49.5416 18.4348 49.18 18.3826 48.8356C18.3304 48.4912 18.2609 48.1296 18.2087 47.7852C18.1565 47.3719 18.087 46.9586 18.0696 46.5281C18.0348 46.1149 18.0522 45.6844 18.0348 45.2711C18.0174 44.8578 18 44.4273 17.9826 44.014C17.9652 43.4802 18.0696 42.9464 18.3131 42.4642C18.3652 42.3781 18.4 42.2232 18.3652 42.1371C18.1913 41.586 17.9131 41.4999 17.3044 41.4483ZM47.3739 47.4408C47.3739 47.1308 47.4261 46.7176 47.3391 46.2698C47.2696 45.9082 47.0783 45.5466 46.9565 45.1505C46.8522 44.7717 46.7652 44.3756 46.6609 43.9968C46.5565 43.618 46.4 43.2391 46.2957 42.8603C46.1913 42.5159 46.0522 42.1198 45.7391 41.8788C45.4609 41.6721 45.0609 41.6205 44.6261 41.6549C44.1739 41.7066 43.7044 41.7066 43.2522 41.7582C42.7826 41.7927 42.4696 42.0854 42.2783 42.4642C42.2261 42.5848 42.2087 42.757 42.2261 42.8947C42.3131 43.3425 42.5044 43.7902 42.5913 44.2379C42.6783 44.6856 42.7652 45.1505 42.8522 45.5983C42.9044 45.9599 42.8696 46.3215 42.9044 46.6831C42.9565 47.0447 43.0609 47.3891 43.0957 47.7508C43.1304 48.1124 43.0957 48.474 43.1304 48.8356C43.1478 49.1972 43.1652 49.5588 43.1652 49.9032C43.1652 50.2649 43.2522 50.6265 43.2348 50.9881C43.2174 51.4014 43.2 51.8147 43.1478 52.2107C43.0783 52.624 42.9565 53.0028 42.8348 53.3989C42.7131 53.7777 42.5913 54.191 42.4 54.5526C42.3652 54.6215 42.2783 54.6559 42.2957 54.7248C42.3131 55.0864 42.7304 55.4997 43.0957 55.4825C43.4087 55.4653 43.7217 55.3964 44.0348 55.362C44.5044 55.2931 44.8696 55.1037 45.1826 54.8626C45.4957 54.6043 45.7565 54.2943 45.9131 53.8466C46.0174 53.5539 46.1217 53.2439 46.2261 52.9512C46.3304 52.6584 46.4348 52.3485 46.5391 52.0557C46.6435 51.7458 46.7826 51.4703 46.8696 51.1603C46.9913 50.7642 47.0435 50.351 47.1304 49.9377C47.2174 49.5416 47.3391 49.1456 47.3739 48.6978C47.4261 48.3018 47.3739 47.8885 47.3739 47.4408ZM7.07827 55.3964C7.26957 55.3792 7.46088 55.4825 7.65218 55.4653C7.94783 55.4308 8.08696 55.1898 8.2087 54.9142C8.31305 54.6732 8.27827 54.5354 8.13914 54.3288C7.91305 54.0016 7.65218 53.7088 7.44349 53.3817C7.2174 53.0545 7.09566 52.6756 6.90436 52.3312C6.73044 52.0213 6.50435 51.7458 6.36522 51.4358C6.22609 51.1086 6.15653 50.7642 6.05218 50.4371C5.94783 50.1099 5.87827 49.7655 5.8087 49.4211C5.73914 49.0767 5.68696 48.7323 5.66957 48.3879C5.65218 48.0435 5.54783 47.6991 5.56522 47.3375C5.58262 46.9931 5.6174 46.6487 5.66957 46.2871C5.72175 45.9427 5.84349 45.6155 5.86088 45.2883C5.87827 44.9439 5.82609 44.5995 5.82609 44.2723C5.84349 43.9279 5.89566 43.5835 5.87827 43.2219C5.87827 42.8775 5.87827 42.5331 5.87827 42.1715C5.87827 41.8443 5.33914 41.3105 5.0087 41.3277C4.62609 41.3449 4.26088 41.4138 3.89566 41.4999C3.53044 41.586 3.16523 41.6721 2.8174 41.8615C2.4174 42.0854 2.19131 42.3609 2.05218 42.6709C1.91305 42.9808 1.84349 43.3425 1.93044 43.7902C1.96523 43.9279 1.98262 44.0485 2.0174 44.1862C2.10436 44.5479 2.22609 44.9095 2.29566 45.2711C2.38262 45.6327 2.48696 45.9943 2.53914 46.3732C2.59131 46.7348 2.57392 47.1136 2.55653 47.4925C2.52175 47.923 2.50436 48.3362 2.46957 48.7667C2.43479 49.18 2.40001 49.6105 2.34783 50.0238C2.31305 50.4715 2.27827 50.8848 2.34783 51.2981C2.4174 51.7286 2.59131 52.1074 2.76522 52.5034C2.93914 52.8823 3.13044 53.2611 3.42609 53.5883C3.66957 53.8638 3.96522 54.036 4.24349 54.2599C4.52175 54.4837 4.78262 54.6904 5.09566 54.8626C5.4087 55.0348 5.70436 55.2242 6.05218 55.3103C6.34783 55.4308 6.71305 55.3964 7.07827 55.3964ZM58.0696 48.1812C58.0522 47.7852 58.1217 47.1308 58.0522 46.4937C58 46.0804 57.8609 45.6844 57.8087 45.2711C57.7565 44.8578 57.7391 44.4445 57.687 44.0312C57.6348 43.618 57.5478 43.2047 57.4957 42.7914C57.4261 42.2748 57.4435 41.7238 57.1304 41.2933C56.9217 41.0005 56.6087 40.8456 56.3478 40.6906C56.0696 40.5184 55.7739 40.3462 55.4435 40.2773C55.1304 40.2084 54.7826 40.1568 54.4522 40.1568C53.9826 40.1568 53.6174 40.8111 53.8087 41.2244C53.9826 41.586 54.2261 41.9132 54.3478 42.2748C54.4696 42.6537 54.5565 43.0325 54.6087 43.4286C54.6609 43.7902 54.5913 44.169 54.6435 44.5479C54.6783 44.9095 54.7826 45.2711 54.8174 45.6499C54.8522 46.0115 54.8348 46.3904 54.8696 46.7692C54.9044 47.1653 54.9217 47.5613 54.9565 47.9574C54.9739 48.3535 55.0783 48.7495 55.0783 49.1456C55.0783 49.5416 55.0957 49.9377 55.0957 50.3337C55.0783 50.7298 55.0261 51.1259 54.9913 51.5219C54.9565 51.918 54.9565 52.314 54.9044 52.7101C54.8522 53.0889 55.3044 53.6227 55.687 53.6055C56.1565 53.5883 56.6087 53.4505 56.9565 53.175C57.287 52.9167 57.5304 52.5207 57.6696 52.0557C57.7913 51.6425 57.8435 51.2292 57.9131 50.7987C57.9826 50.3854 58.0522 49.9721 58.087 49.5244C58.1044 49.0595 58.0696 48.629 58.0696 48.1812Z" fill="#ED3024"/>
</svg>
