<svg width="60" height="60" viewBox="0 0 60 60" fill="none" xmlns="http://www.w3.org/2000/svg">
<path d="M57.6 29.9999C57.6 14.7551 45.2448 2.3999 30 2.3999C14.7552 2.3999 2.4 14.7551 2.4 29.9999C2.4 43.4543 12.0288 54.6527 24.768 57.0959V35.6879H18.72V27.5423H24.768V22.1135C24.768 22.1135 25.44 14.6495 29.472 12.6143C33.504 10.5791 35.52 10.5791 35.52 10.5791H42.24V18.7199C42.24 18.7199 36.192 18.0431 34.848 20.0783C34.848 20.0783 34.176 20.0783 33.504 22.1135V27.5423H42.24V35.6831H33.504V57.3695C47.0928 55.6463 57.6 44.0543 57.6 29.9999Z" fill="#EE3024"/>
</svg>
