<svg width="60" height="60" viewBox="0 0 60 60" fill="none" xmlns="http://www.w3.org/2000/svg">
<path d="M45.4608 4.7999C51.096 4.7999 55.68 9.3839 55.68 15.0191V45.4655C55.68 51.1007 51.096 55.6847 45.4608 55.6847H15.0192C9.384 55.6799 4.8 51.0959 4.8 45.4607V15.0191C4.8 9.3839 9.384 4.7999 15.0192 4.7999H45.4608ZM45.4608 2.3999H15.0192C8.0496 2.3999 2.4 8.0495 2.4 15.0191V45.4655C2.4 52.4303 8.0496 58.0799 15.0192 58.0799H45.4656C52.4352 58.0799 58.0848 52.4303 58.0848 45.4607V15.0191C58.08 8.0495 52.4304 2.3999 45.4608 2.3999Z" fill="#EE3024"/>
<path d="M30 19.68C35.9568 19.68 40.8 24.5232 40.8 30.48C40.8 36.4368 35.9568 41.28 30 41.28C24.0432 41.28 19.2 36.4368 19.2 30.48C19.2 24.5232 24.0432 19.68 30 19.68ZM30 17.28C22.7088 17.28 16.8 23.1888 16.8 30.48C16.8 37.7712 22.7088 43.68 30 43.68C37.2912 43.68 43.2 37.7712 43.2 30.48C43.2 23.1888 37.2912 17.28 30 17.28Z" fill="#EE3024"/>
<path d="M47.28 17.28C48.738 17.28 49.92 16.098 49.92 14.64C49.92 13.182 48.738 12 47.28 12C45.822 12 44.64 13.182 44.64 14.64C44.64 16.098 45.822 17.28 47.28 17.28Z" fill="#EE3024"/>
</svg>
